<?xml version="1.0" standalone="no"?><!DOCTYPE svg PUBLIC "-//W3C//DTD SVG 1.1//EN" "http://www.w3.org/Graphics/SVG/1.1/DTD/svg11.dtd"><svg t="1670776720559" class="icon" viewBox="0 0 1024 1024" version="1.1" xmlns="http://www.w3.org/2000/svg" p-id="28677" xmlns:xlink="http://www.w3.org/1999/xlink" width="64" height="64"><path d="M861.92 278.21c-58.94-10.45-117.49-23.52-177.08-30-21.53-2.33-43.18-3.87-64.84-4.12v12.13c59.06 2.72 117.3 14.31 175.25 25.34 13.93 2.65 27.86 5.27 41.82 7.75 6.77 1.2 14.85-1.24 21-4 2.23-1.02 10.5-5.92 3.85-7.1zM548.17 245.29h-8.61c-20.51 0.17-41.3 1-61.42 5.29-18.55 4-41.56 10.28-53.12 26.71-22.2 31.57 6.39 66.45 24.37 91.75 9.54 13.42 20.3 28.3 22.35 45.12 0.36 3 0.79 6.73 0 9.64a11.85 11.85 0 0 1-1.58 3.05c-0.08 0.13-0.37 0.46-0.56 0.68l-1.61 0.17c-0.29 0-1.21 0.08-1.65 0.1l-1.64 0.06h-5.43c-4.39 0-8.77-0.24-13.15-0.5-8.37-0.5-15.47-1.19-24.28-2-17.23-1.52-34.87-3.42-52.13-1.28-10.47 1.3-21.15 3.86-30.41 9.06-6.11 3.43-13.42 8.37-14.66 15.81-0.93 5.62 2 10.66 5 15.2 4.13 6.27 8.92 12.08 12.8 18.52 8.88 14.72 10.2 30.31 4.92 46.57-4.53 14-13 26.33-23.53 36.43-12.43 11.92-24.9 19.64-40.29 27.71l-0.27 0.14-0.35 0.17-2.55 1.31q-3.05 1.49-6.13 2.92-6.24 2.89-12.59 5.53-2.76 1.15-5.54 2.26l-1.74 0.68-3.26 1.25q-6.55 2.48-13.17 4.78-6.06 2.11-12.16 4.11-3.31 1.08-6.64 2.14l-3.31 1-2.61 0.8q-11.89 3.6-23.84 7c-15.58 4.45-31.23 8.68-46.74 13.4-7.18 2.19-14.36 4.42-21.43 6.95-2.3 0.82-12.42 4.2-9.14 7.91 1.31 1.48 6.15 0.76 7.57 0.62a49.11 49.11 0 0 0 11.7-2.69q4.55-1.63 9.14-3.12l4.09-1.3 0.63-0.21 2.26-0.68c7.16-2.15 14.35-4.2 21.54-6.23 17.55-5 35.11-9.89 52.54-15.27 35.46-10.85 71.37-23.52 102.8-43.54 26.66-17 50.63-40.39 55.7-72.88 2.74-17.54-4.17-31.64-14.17-45.53-3.64-5.05-7.9-10.12-10.19-16-1.88-4.8-1.18-9.32 1.86-12.27a20.76 20.76 0 0 1 1.87-1.58l1.93-0.16c1.72 0 3.44-0.09 5.16-0.09 4.06 0 8.11 0.15 12.16 0.38 16.73 0.92 34.35 3.16 52 4 18.55 0.88 38-0.06 55.2-7.76 5.74-2.57 12.74-6.42 15.19-12.65s0.85-14.77-1.05-21.09c-10.13-33.4-42.43-55.68-51.21-89.68-3.83-14.86-0.61-31.87 11.18-41.71 0.29-0.25 0.61-0.48 0.92-0.71-0.49 0.37 1.33-0.85 1.47-0.94l1.37-0.78c0.28-0.13 1.45-0.75 1.75-0.88 0.71-0.31 3.92-1.49 0.25-0.16 0.81-0.29 1.63-0.58 2.44-0.88a5.23 5.23 0 0 0 0.92-0.46c1-0.27 2.06-0.42 2.87-0.62 0.44-0.11 1.73-0.37 2.16-0.46l-1.83 0.36c1.12-0.22 2.24-0.47 3.37-0.68 1.47-0.28 2.95-0.53 4.43-0.77l2.36-0.33q1.8-0.23 3.61-0.42 4-0.43 7.94-0.74c15.61-1.21 35.45-0.89 53.29-0.9h0.88zM357.78 435.18h-0.25l0.35-0.09 0.3-0.08z m-0.46 0.1h0.24c-1.79 0.55-1.1 0.26-0.25 0z m4.56-1.73c0.69-0.35 1.21-0.59 0 0z" fill="#2c2c2c" p-id="28678"></path><path d="M775.4 418.42L724 367a31.13 31.13 0 0 0-44 0l-69.56 69.56v44l91.56-91.5 51.37 51.37-142.93 142.95v44l165-165a31.13 31.13 0 0 0-0.04-43.96zM548.17 645.65l-188 188-51.37-51.37 239.37-239.37v-44L286.78 760.27a31.13 31.13 0 0 0 0 44l51.37 51.37a31.13 31.13 0 0 0 44 0l166-166z" fill="#2c2c2c" p-id="28679"></path><path d="M253.25 118.85m-21.4 0a21.4 21.4 0 1 0 42.8 0 21.4 21.4 0 1 0-42.8 0Z" fill="#2c2c2c" p-id="28680"></path><path d="M133.9 380.9m-21.4 0a21.4 21.4 0 1 0 42.8 0 21.4 21.4 0 1 0-42.8 0Z" fill="#2c2c2c" p-id="28681"></path><path d="M892.48 464.89m-14.59 0a14.59 14.59 0 1 0 29.18 0 14.59 14.59 0 1 0-29.18 0Z" fill="#2c2c2c" p-id="28682"></path><path d="M796.16 168.47m-28.22 0a28.22 28.22 0 1 0 56.44 0 28.22 28.22 0 1 0-56.44 0Z" fill="#2c2c2c" p-id="28683"></path><path d="M876.91 200.25m-9.41 0a9.41 9.41 0 1 0 18.82 0 9.41 9.41 0 1 0-18.82 0Z" fill="#2c2c2c" p-id="28684"></path><path d="M819.63 312.22l10.85 10.85-64.84 102.34-48.31-48.31 102.3-64.87m0-20.76a20.7 20.7 0 0 0-11.42 3.43l-111.29 73.36c-5.21 3.43 0.85-0.3 0.22 5.9a20.76 20.76 0 0 0 6 16.78l48.31 48.31a20.76 20.76 0 0 0 14.68 6.08q1 0 2.05-0.1c6.19-0.61 2.33 5.36 5.78 0.18l73.83-110.83a20.76 20.76 0 0 0-2.6-26.18l-10.85-10.85a20.74 20.74 0 0 0-14.68-6.08zM953 891.59h-22.46a15.57 15.57 0 0 1 0-31.13H953a15.57 15.57 0 0 1 0 31.13zM883.84 891.59h-748.1a15.57 15.57 0 0 1 0-31.13h748.1a15.57 15.57 0 0 1 0 31.13zM93.36 891.59H70.87a15.57 15.57 0 0 1 0-31.13h22.49a15.57 15.57 0 0 1 0 31.13z" fill="#2c2c2c" p-id="28685"></path><path d="M620.82 151.89v708.78h-72.65V151.89h72.65m0-31.13h-72.65A31.13 31.13 0 0 0 517 151.89v708.78a31.13 31.13 0 0 0 31.13 31.13h72.65A31.13 31.13 0 0 0 652 860.67V151.89a31.13 31.13 0 0 0-31.13-31.13z" fill="#2c2c2c" p-id="28686"></path><path d="M610.44 151.89h10.37v708.79h-10.37z" fill="#2c2c2c" p-id="28687"></path><path d="M837.93 304.52l16.06-16.06" fill="#2c2c2c" p-id="28688"></path><path d="M837.93 320.08a15.57 15.57 0 0 1-11-26.57L843 277.46a15.57 15.57 0 1 1 22 22l-16.05 16.05a15.52 15.52 0 0 1-11.02 4.57z" fill="#2c2c2c" p-id="28689"></path><path d="M778.82 333l33.71 33.72" fill="#2c2c2c" p-id="28690"></path><path d="M812.53 377.09a10.35 10.35 0 0 1-7.34-3l-33.71-33.71a10.38 10.38 0 0 1 14.68-14.68l33.71 33.71a10.38 10.38 0 0 1-7.34 17.72zM620.82 374.17h-72.65a15.57 15.57 0 0 1 0-31.13h72.65a15.57 15.57 0 1 1 0 31.13z" fill="#2c2c2c" p-id="28691"></path><path d="M564.23 316.29a5.19 5.19 0 0 1-5.23-5.19v-14.92a5.19 5.19 0 0 1 10.38 0v14.92a5.19 5.19 0 0 1-5.15 5.19zM564.23 275.75a5.19 5.19 0 0 1-5.19-5.19v-82.05a5.19 5.19 0 0 1 10.38 0v82.05a5.19 5.19 0 0 1-5.19 5.19z" fill="#2c2c2c" p-id="28692"></path><path d="M349.76 761.18l-10.55 10.54" fill="#2c2c2c" p-id="28693"></path><path d="M339.21 776.91a5.19 5.19 0 0 1-3.67-8.86l10.55-10.55a5.19 5.19 0 0 1 7.34 7.34l-10.55 10.55a5.17 5.17 0 0 1-3.67 1.52z" fill="#2c2c2c" p-id="28694"></path><path d="M425.9 685.04l-58.02 58.02" fill="#2c2c2c" p-id="28695"></path><path d="M367.88 748.25a5.19 5.19 0 0 1-3.67-8.86l58-58a5.19 5.19 0 0 1 7.34 7.34l-58 58a5.17 5.17 0 0 1-3.67 1.52z" fill="#2c2c2c" p-id="28696"></path></svg>