<?xml version="1.0" standalone="no"?><!DOCTYPE svg PUBLIC "-//W3C//DTD SVG 1.1//EN" "http://www.w3.org/Graphics/SVG/1.1/DTD/svg11.dtd"><svg t="1671036663346" class="icon" viewBox="0 0 1110 1024" version="1.1" xmlns="http://www.w3.org/2000/svg" p-id="2535" xmlns:xlink="http://www.w3.org/1999/xlink" width="138.75" height="128"><path d="M1079.179756 21.487444a37.250774 37.250774 0 0 0-29.41314-20.430684c-150.412109-16.379773-295.27623 163.709666-348.99484 239.267973a49.139319 49.139319 0 0 1-55.920193 18.141039v-0.440316a239.70829 239.70829 0 0 0-31.350533-8.01376 302.145167 302.145167 0 0 0-115.274854 0 234.776746 234.776746 0 0 0-31.350533 8.01376v0.440316a49.139319 49.139319 0 0 1-55.920193-18.141039C356.620417 164.766426 211.492106-15.323013 61.784504 1.05676a36.986584 36.986584 0 0 0-29.765394 20.430684C8.946526 67.368421-38.78378 202.54558 59.847111 388.623323a184.932921 184.932921 0 0 1 18.229102 121.087031c-32.495356 169.169591-1.673203 625.249398 427.195047 478.271758a145.832817 145.832817 0 0 1 99.68765 1.761266c427.5473 164.854489 460.571035-310.335053 428.163743-479.768834a184.052288 184.052288 0 0 1 17.612659-120.998968c99.247334-186.429997 51.076711-321.607155 28.444444-367.488132z" fill="#FCF0E6" p-id="2536"></path><path d="M598.970606 815.113863c0 23.865153-19.373925 55.920193-43.239078 55.920193s-43.239078-32.05504-43.239078-55.920193a43.239078 43.239078 0 0 1 86.478156 0z" fill="#F7999F" p-id="2537"></path><path d="M592.101669 816.082559c0 20.518748-16.379773 46.937736-36.546268 46.937737s-36.458204-26.418989-36.458204-46.937737a36.546268 36.546268 0 0 1 73.004472 0z" fill="#FF6E83" p-id="2538"></path><path d="M76.491074 61.644307a19.197798 19.197798 0 0 1 25.714482-7.397317c54.423117 29.148951 232.046784 131.038184 260.667355 228.964568 24.04128 82.691434-102.681803 114.482284-177.887857 125.402133a80.137599 80.137599 0 0 1-81.810802-39.628483C65.659289 301.70485 12.380995 172.427933 76.491074 61.644307zM1041.752856 61.644307a19.197798 19.197798 0 0 0-25.714482-7.397317c-54.423117 29.148951-232.046784 131.038184-260.667355 228.964568C731.065549 366.431373 858.052821 397.869969 933.611129 409.142071a80.137599 80.137599 0 0 0 81.810802-40.156863c37.162711-67.280358 90.441004-196.557276 26.330925-307.340901zM232.803423 744.575163a624.632955 624.632955 0 0 0-143.543171 42.886825 449.122807 449.122807 0 0 0 13.737874 43.239078c61.73237-45.70485 129.805298-86.125903 129.805297-86.125903zM250.768336 787.638115c-34.256622 10.039216-86.125903 49.403509-129.012728 85.861713a332.527004 332.527004 0 0 0 21.311317 35.929825c47.0258-59.530788 107.70141-121.791538 107.701411-121.791538zM243.106829 698.958376c-40.421053-18.229102-109.374613-10.127279-169.786034 3.346406 1.761266 15.49914 4.138975 31.26247 7.221191 46.849673 55.215686-37.250774 162.564843-50.196078 162.564843-50.196079z" fill="#F7999F" p-id="2539"></path><path d="M555.555401 871.034056a194.53182 194.53182 0 0 1-64.110079 80.930168 165.558996 165.558996 0 0 1-99.68765 31.702787 192.506364 192.506364 0 0 1-52.221534-7.573444 264.189886 264.189886 0 0 1-48.787066-19.021672 392.233918 392.233918 0 0 1-84.540764-58.826281 554.094255 554.094255 0 0 0 88.679739 50.548332 247.810114 247.810114 0 0 0 96.869625 22.368077 170.050224 170.050224 0 0 0 93.435156-27.916065 211.351909 211.351909 0 0 0 38.659787-31.878913 244.639835 244.639835 0 0 0 31.702786-40.332989zM555.555401 871.034056a244.639835 244.639835 0 0 0 31.702787 39.892673 211.351909 211.351909 0 0 0 38.659787 31.878913 170.314413 170.314413 0 0 0 93.435156 27.916064 247.898177 247.898177 0 0 0 96.869625-22.368077 557.176471 557.176471 0 0 0 88.679739-50.108015 392.233918 392.233918 0 0 1-84.540764 59.266598 263.573443 263.573443 0 0 1-48.699002 19.021672 192.94668 192.94668 0 0 1-52.221535 7.573443 165.823185 165.823185 0 0 1-99.775713-31.702786 195.236326 195.236326 0 0 1-64.11008-81.370485zM484.488322 697.549364l-7.573443-5.988304c-41.830065-33.111799-128.308222-24.217406-129.188855-24.04128h-0.880633C159.270572 649.202614 111.716392 511.383557 104.054885 484.348125l8.366014-2.641899c3.170279 8.80633 47.113863 10.127279 87.534915 5.812178 2.113519 0 4.138975-0.616443 6.164431-1.05676 16.996216-3.962848 104.266942-21.751634 182.731338 7.837634 87.182663 32.935673 95.108359 187.398693 95.372549 193.73925z m-108.934297-40.156863a290.080495 290.080495 0 0 1 30.117648 1.497076 49.491572 49.491572 0 0 0 51.781217-64.902649c-12.945304-38.74785-35.225318-77.847953-71.683522-91.761954-75.470244-28.444444-162.124527-11.095975-178.24011-7.397317-1.849329 0.440316-3.698658 0.704506-5.636051 0.968697h-1.232886a49.315445 49.315445 0 0 0-31.174407 82.691434c34.696938 36.105951 89.031992 70.450636 172.956312 79.256966a49.051256 49.051256 0 0 0 9.510836 0c5.019608 0.176127 13.297558-0.352253 23.600963-0.352253zM617.816151 697.549364v-9.686963c0-6.516684 8.27795-160.979704 95.372549-193.73925 78.640523-29.589267 166.263502-11.712418 183.347782-7.74957a36.105951 36.105951 0 0 0 6.16443 1.05676c39.80461 4.227038 83.748194 2.906089 86.918473-5.900241l8.806329 2.641899c-7.661507 27.387685-55.215686 165.206742-242.966632 183.523907h-0.880633c-0.880633 0-87.358789-8.80633-129.188854 24.04128z m196.116959-211.35191a277.927761 277.927761 0 0 0-96.869625 16.02752c-36.986584 13.914001-58.826281 52.837977-71.683522 91.673891a49.579635 49.579635 0 0 0 52.221534 64.902649 317.908497 317.908497 0 0 1 52.837977-0.52838 49.051256 49.051256 0 0 0 9.510836 0c83.836257-9.422773 138.171311-43.503268 172.956313-79.256966a49.227382 49.227382 0 0 0-31.26247-82.603371h-0.616443c-1.849329 0-3.610595-0.52838-5.459925-0.880633a382.458892 382.458892 0 0 0-81.634675-9.33471z" fill="#FF6E83" p-id="2540"></path></svg>