<?xml version="1.0" standalone="no"?><!DOCTYPE svg PUBLIC "-//W3C//DTD SVG 1.1//EN" "http://www.w3.org/Graphics/SVG/1.1/DTD/svg11.dtd"><svg t="1671035524914" class="icon" viewBox="0 0 1024 1024" version="1.1" xmlns="http://www.w3.org/2000/svg" p-id="13505" xmlns:xlink="http://www.w3.org/1999/xlink" width="128" height="128"><path d="M379.776 639.6672c62.6688-48.96 142.3232-56.9344 179.0464-9.9328 36.736 47.0144 9.7152 122.368-52.9536 171.3152-62.6688 48.96-142.3104 56.96-179.0336 9.9328-36.736-47.0016-9.728-122.3552 52.9536-171.3152z m31.5264 40.3456c-43.1744 33.7408-59.6224 79.616-44.1216 99.456 15.488 19.84 64 14.976 107.1616-18.7648 43.1872-33.728 59.6352-79.616 44.1344-99.456-15.488-19.8272-64-14.976-107.1744 18.7648z" fill="#FF5E94" p-id="13506"></path><path d="M218.0864 489.664l2.9824-2.2912c51.904-38.9376 116.8384-45.184 147.5968-5.7856 31.3472 40.1536 8.128 103.2832-44.2368 144.2304-52.3776 40.96-119.232 48.2432-150.5792 8.064-30.7584-39.3984-8.96-100.9408 41.3568-141.9264l2.88-2.304z m31.5392 40.32l-2.944 2.368c-30.72 25.4336-42.1504 57.6384-32.4736 70.0288 9.9584 12.7488 45.7472 8.8576 78.6816-16.896 32.9472-25.7536 45.3888-59.6096 35.4176-72.384-9.664-12.3904-43.7248-9.0752-75.8528 14.7328l-2.816 2.1632zM638.208 467.4944c52.3648-40.96 119.2192-48.2304 150.5792-8.064 31.3344 40.1536 8.128 103.2832-44.2496 144.2304-52.3776 40.96-119.2192 48.2304-150.5792 8.064-31.3472-40.1536-8.128-103.2704 44.2368-144.2304z m31.5264 40.3328c-32.9344 25.7664-45.3888 59.6224-35.4176 72.3968 9.9584 12.7488 45.76 8.8576 78.6816-16.896 32.9472-25.7536 45.4016-59.6224 35.4304-72.384-9.9584-12.7616-45.76-8.8576-78.6944 16.896z" fill="#FECB11" p-id="13507"></path><path d="M398.1312 367.4112L513.92 649.728a25.6 25.6 0 0 0 47.36-19.4304l-115.776-282.2912a25.6 25.6 0 0 0-47.36 19.4176z" fill="#FF5E94" p-id="13508"></path><path d="M392 352.9728c3.4048-10.7136 21.9392-23.2064 55.6032-37.504 22.4-9.5104 70.1312 4.2112 102.9504 2.6112 10.9824-0.5376 32.1536-11.0592 63.5392-31.5648l40.0128 94.2592c-32.64 20.4928-54.6816 31.0656-66.1504 31.6928-31.68 1.7664-78.528-11.9936-100.352-2.7392-33.664 14.2976-52.1856 26.7904-55.5904 37.504l-40.0128-94.2592z" fill="#FF5E94" p-id="13509"></path><path d="M226.9184 256.7296l110.0288 259.2128a25.6 25.6 0 1 0 47.1296-19.9936L274.048 236.7232a25.6 25.6 0 0 0-47.1296 20.0064zM647.04 234.5728l110.0288 259.2128a25.6 25.6 0 1 0 47.1296-20.0064l-110.0288-259.2a25.6 25.6 0 1 0-47.1296 19.9936z" fill="#FECB11" p-id="13510"></path><path d="M226.752 239.936c3.3536-8.7168 19.9936-19.4304 49.92-32.128 19.9296-8.4608 61.0944 0.7936 89.8176-1.6896 9.6-0.832 28.4928-10.048 56.6528-27.648l31.488 74.1632c-29.2608 17.6384-48.896 26.9312-58.944 27.8528-27.7248 2.5856-68.1344-6.7456-87.5264 1.4848-29.9264 12.7104-46.5664 23.424-49.92 32.128l-31.488-74.1632zM646.8608 217.7792c3.3536-8.7168 20.0064-19.4304 49.92-32.128 19.9296-8.4608 61.0944 0.7936 89.8176-1.6896 9.6-0.832 28.4928-10.0608 56.6528-27.648l31.488 74.1632c-29.2608 17.6384-48.896 26.9184-58.9312 27.8528-27.7376 2.5856-68.1472-6.7456-87.5392 1.4848-29.9264 12.7104-46.5664 23.424-49.92 32.128l-31.488-74.1632z" fill="#FECB11" p-id="13511"></path></svg>